#!OML:ASF I:\Actors\actors\Patient Classification 2\Patient 1\Session 1\actor1.ASF
:FULLY-SPECIFIED
:DEGREES

239
root -0.352286 18.05 5.80693 1.22175 -28.7856 -2.6926
lowerback 1.68438 -7.8782 -2.00029
upperback -2.03048 -10.5303 2.57556
thorax -2.18626 -5.21188 4.04786
lowerneck -8.69029 5.67045 15.0308
upperneck 28.1091 3.6371 3.12281
head 10.9347 3.41591 -0.96797
rclavicle -4.05769e-014 4.77083e-015
rhumerus 38.7582 44.2735 -5.08439
rradius 131.989
rwrist -90.349
rhand -3.06769 -57.1972
rfingers 7.12502
rthumb 22.649 -85.8883
lclavicle -4.05769e-014 4.77083e-015
lhumerus 35.477 28.2059 85.159
lradius 53.2129
lwrist 73.146
lhand -31.9774 1.94533
lfingers 7.12502
lthumb -5.2269 31.8609
rfemur 10.5747 16.3116 14.6859
rtibia -17.9375
rfoot 1.76311 -7.56184
rtoes -1.63412
lfemur 17.0415 15.0132 -12.3549
ltibia -2.78806
lfoot -17.54 16.4287
ltoes 5.41714
240
root -0.347603 18.0489 5.80557 1.2438 -29.0195 -2.67475
lowerback 1.82166 -8.1044 -2.00861
upperback -2.08244 -10.8321 2.7532
thorax -2.25654 -5.36039 4.26008
lowerneck -8.4367 5.71403 14.5472
upperneck 28.0708 3.80793 3.23789
head 10.8553 3.45046 -0.836953
rclavicle -1.07095e-014 -2.74323e-014
rhumerus 39.9127 44.3584 -3.42087
rradius 132.334
rwrist -90.5833
rhand -3.86656 -56.6468
rfingers 7.12502
rthumb 21.8821 -85.4294
lclavicle -1.07095e-014 -2.74323e-014
lhumerus 35.1528 29.4563 85.8999
lradius 52.839
lwrist 72.7242
lhand -32.515 1.83998
lfingers 7.12502
lthumb -5.74593 31.7421
rfemur 10.544 16.5179 14.6358
rtibia -18.0577
rfoot 1.8642 -7.61891
rtoes -1.51913
lfemur 16.783 15.2778 -12.4285
ltibia -2.28106
lfoot -17.8376 16.267
ltoes 5.83081
241
root -0.343526 18.0475 5.80664 1.24976 -29.2443 -2.67114
lowerback 1.87977 -8.23406 -1.91854
upperback -2.03173 -11.0027 2.77829
thorax -2.23381 -5.44831 4.24433
lowerneck -8.40957 5.70533 14.4122
upperneck 28.0761 3.79542 3.3218
head 10.8442 3.43743 -0.788241
rclavicle -1.80347e-013 -5.1684e-015
rhumerus 40.5826 44.3834 -2.33927
rradius 132.665
rwrist -90.7842
rhand -4.31281 -56.2035
rfingers 7.12502
rthumb 21.4535 -85.0356
lclavicle -1.80347e-013 -5.1684e-015
lhumerus 34.9474 30.3468 86.5852
lradius 52.5539
lwrist 72.4021
lhand -32.6489 1.93668
lfingers 7.12502
lthumb -5.87529 31.8352
rfemur 10.5325 16.6226 14.6025
rtibia -18.1584
rfoot 1.9775 -7.56695
rtoes -1.52524
lfemur 16.4746 15.5369 -12.505
ltibia -1.62434
lfoot -18.184 16.0665
ltoes 6.22743
242
root -0.339937 18.0469 5.8095 1.26017 -29.4686 -2.59912
lowerback 1.84416 -8.2791 -1.82355
upperback -1.92725 -11.0608 2.66507
thorax -2.14098 -5.48223 4.06573
lowerneck -8.55312 5.6931 14.5832
upperneck 28.1044 3.67865 3.41838
head 10.8855 3.41223 -0.790489
rclavicle -2.88983e-014 1.82882e-014
rhumerus 40.7599 44.4037 -1.74263
rradius 132.99
rwrist -90.9852
rhand -3.75999 -56.1858
rfingers 7.12502
rthumb 21.9844 -84.9564
lclavicle -2.88983e-014 1.82882e-014
lhumerus 34.8636 30.903 87.1757
lradius 52.2743
lwrist 72.1877
lhand -32.5257 2.00781
lfingers 7.12502
lthumb -5.75634 31.9096
rfemur 10.4624 16.6696 14.4879
rtibia -18.2257
rfoot 2.11102 -7.44665
rtoes -1.69116
lfemur 16.1417 15.8017 -12.6613
ltibia -0.990013
lfoot -18.4447 15.8624
ltoes 6.36024
243
root -0.337295 18.0467 5.81113 1.31263 -29.6801 -2.55421
lowerback 1.84428 -8.30814 -1.71981
upperback -1.84548 -11.0976 2.55729
thorax -2.09414 -5.50407 3.89643
lowerneck -8.76067 5.67828 14.7947
upperneck 28.1819 3.54366 3.47935
head 10.9596 3.38232 -0.811917
rclavicle -1.54083e-013 4.37326e-015
rhumerus 40.8076 44.4686 -1.24929
rradius 133.28
rwrist -91.127
rhand -2.81987 -56.4745
rfingers 7.12502
rthumb 22.8868 -85.1363
lclavicle -1.54083e-013 4.37326e-015
lhumerus 34.8108 31.3724 87.6813
lradius 51.9689
lwrist 72.026
lhand -32.4344 2.21517
lfingers 7.12502
lthumb -5.66817 32.1194
rfemur 10.3542 16.7789 14.3978
rtibia -18.2825
rfoot 2.22665 -7.3998
rtoes -1.82937
lfemur 15.5746 16.0704 -12.8453
ltibia 1.90833e-014
lfoot -18.8728 15.585
ltoes 6.34099
244
root -0.335233 18.0462 5.81046 1.35896 -29.8447 -2.57465
lowerback 1.96744 -8.332 -1.59696
upperback -1.77815 -11.1272 2.48681
thorax -2.1275 -5.52052 3.77663
lowerneck -8.97571 5.62506 15.0338
upperneck 28.2477 3.37648 3.44045
head 11.0299 3.32966 -0.878717
rclavicle -7.40473e-014 -1.74931e-014
rhumerus 40.8346 44.5512 -0.742675
rradius 133.583
rwrist -91.2089
rhand -2.41918 -56.4715
rfingers 7.12502
rthumb 23.2713 -85.0852
lclavicle -7.40473e-014 -1.74931e-014
lhumerus 34.7123 31.7921 88.1798
lradius 51.7655
lwrist 71.9198
lhand -32.5255 2.29467
lfingers 7.12502
lthumb -5.75612 32.1965
rfemur 10.2972 16.8905 14.3927
rtibia -18.3449
rfoot 2.34621 -7.39128
rtoes -1.82345
lfemur 15.5734 16.2479 -12.8226
ltibia -3.97569e-014
lfoot -18.9102 15.5312
ltoes 6.44397
